<mxfile host="app.diagrams.net" agent="Mozilla/5.0 (Macintosh; Intel Mac OS X 10_15_7) AppleWebKit/537.36 (KHTML, like Gecko) Chrome/129.0.0.0 Safari/537.36" version="24.7.15">
  <diagram name="Page-1" id="Srz1Zm0OKNgckGHmFhSy">
    <mxGraphModel dx="1029" dy="719" grid="0" gridSize="10" guides="1" tooltips="1" connect="1" arrows="1" fold="1" page="0" pageScale="1" pageWidth="850" pageHeight="1100" math="0" shadow="0">
      <root>
        <mxCell id="0" />
        <mxCell id="1" parent="0" />
        <mxCell id="-Q4Kfv5MP3wiHTD52DeR-20" value="" style="verticalLabelPosition=bottom;verticalAlign=top;html=1;shape=mxgraph.basic.rect;fillColor2=none;strokeWidth=1;size=20;indent=5;dashed=1;" parent="1" vertex="1">
          <mxGeometry x="89" y="231" width="530" height="175" as="geometry" />
        </mxCell>
        <mxCell id="-Q4Kfv5MP3wiHTD52DeR-42" style="edgeStyle=orthogonalEdgeStyle;rounded=0;orthogonalLoop=1;jettySize=auto;html=1;exitX=0.5;exitY=1;exitDx=0;exitDy=0;" parent="1" source="-Q4Kfv5MP3wiHTD52DeR-5" target="-Q4Kfv5MP3wiHTD52DeR-41" edge="1">
          <mxGeometry relative="1" as="geometry">
            <mxPoint x="364" y="466" as="targetPoint" />
          </mxGeometry>
        </mxCell>
        <mxCell id="-Q4Kfv5MP3wiHTD52DeR-5" value="" style="whiteSpace=wrap;html=1;aspect=fixed;" parent="1" vertex="1">
          <mxGeometry x="127" y="286" width="80" height="80" as="geometry" />
        </mxCell>
        <mxCell id="-Q4Kfv5MP3wiHTD52DeR-6" value="Pod 1" style="text;html=1;align=left;verticalAlign=middle;resizable=0;points=[];autosize=1;strokeColor=none;fillColor=none;" parent="1" vertex="1">
          <mxGeometry x="127" y="258" width="49" height="26" as="geometry" />
        </mxCell>
        <mxCell id="-Q4Kfv5MP3wiHTD52DeR-21" value="..." style="text;html=1;align=center;verticalAlign=middle;resizable=0;points=[];autosize=1;strokeColor=none;fillColor=none;" parent="1" vertex="1">
          <mxGeometry x="462" y="340" width="28" height="26" as="geometry" />
        </mxCell>
        <mxCell id="-Q4Kfv5MP3wiHTD52DeR-26" value="Kubernetes Cluster" style="text;html=1;align=center;verticalAlign=middle;resizable=0;points=[];autosize=1;strokeColor=none;fillColor=none;" parent="1" vertex="1">
          <mxGeometry x="89" y="205" width="121" height="26" as="geometry" />
        </mxCell>
        <mxCell id="-Q4Kfv5MP3wiHTD52DeR-28" value="" style="aspect=fixed;sketch=0;html=1;dashed=0;whitespace=wrap;verticalLabelPosition=bottom;verticalAlign=top;fillColor=#2875E2;strokeColor=#ffffff;points=[[0.005,0.63,0],[0.1,0.2,0],[0.9,0.2,0],[0.5,0,0],[0.995,0.63,0],[0.72,0.99,0],[0.5,1,0],[0.28,0.99,0]];shape=mxgraph.kubernetes.icon2;kubernetesLabel=1;prIcon=pod" parent="1" vertex="1">
          <mxGeometry x="142" y="302" width="50" height="48" as="geometry" />
        </mxCell>
        <mxCell id="-Q4Kfv5MP3wiHTD52DeR-30" value="" style="whiteSpace=wrap;html=1;aspect=fixed;" parent="1" vertex="1">
          <mxGeometry x="355" y="286" width="80" height="80" as="geometry" />
        </mxCell>
        <mxCell id="-Q4Kfv5MP3wiHTD52DeR-31" value="Pod 3" style="text;html=1;align=left;verticalAlign=middle;resizable=0;points=[];autosize=1;strokeColor=none;fillColor=none;" parent="1" vertex="1">
          <mxGeometry x="355" y="258" width="49" height="26" as="geometry" />
        </mxCell>
        <mxCell id="-Q4Kfv5MP3wiHTD52DeR-32" value="" style="aspect=fixed;sketch=0;html=1;dashed=0;whitespace=wrap;verticalLabelPosition=bottom;verticalAlign=top;fillColor=#2875E2;strokeColor=#ffffff;points=[[0.005,0.63,0],[0.1,0.2,0],[0.9,0.2,0],[0.5,0,0],[0.995,0.63,0],[0.72,0.99,0],[0.5,1,0],[0.28,0.99,0]];shape=mxgraph.kubernetes.icon2;kubernetesLabel=1;prIcon=pod" parent="1" vertex="1">
          <mxGeometry x="370" y="302" width="50" height="48" as="geometry" />
        </mxCell>
        <mxCell id="-Q4Kfv5MP3wiHTD52DeR-33" value="" style="whiteSpace=wrap;html=1;aspect=fixed;" parent="1" vertex="1">
          <mxGeometry x="242" y="286" width="80" height="80" as="geometry" />
        </mxCell>
        <mxCell id="-Q4Kfv5MP3wiHTD52DeR-34" value="Pod 2" style="text;html=1;align=left;verticalAlign=middle;resizable=0;points=[];autosize=1;strokeColor=none;fillColor=none;" parent="1" vertex="1">
          <mxGeometry x="242" y="258" width="49" height="26" as="geometry" />
        </mxCell>
        <mxCell id="-Q4Kfv5MP3wiHTD52DeR-35" value="" style="aspect=fixed;sketch=0;html=1;dashed=0;whitespace=wrap;verticalLabelPosition=bottom;verticalAlign=top;fillColor=#2875E2;strokeColor=#ffffff;points=[[0.005,0.63,0],[0.1,0.2,0],[0.9,0.2,0],[0.5,0,0],[0.995,0.63,0],[0.72,0.99,0],[0.5,1,0],[0.28,0.99,0]];shape=mxgraph.kubernetes.icon2;kubernetesLabel=1;prIcon=pod" parent="1" vertex="1">
          <mxGeometry x="257" y="302" width="50" height="48" as="geometry" />
        </mxCell>
        <mxCell id="-Q4Kfv5MP3wiHTD52DeR-36" value="" style="whiteSpace=wrap;html=1;aspect=fixed;" parent="1" vertex="1">
          <mxGeometry x="511" y="289" width="80" height="80" as="geometry" />
        </mxCell>
        <mxCell id="-Q4Kfv5MP3wiHTD52DeR-37" value="Pod 10" style="text;html=1;align=left;verticalAlign=middle;resizable=0;points=[];autosize=1;strokeColor=none;fillColor=none;" parent="1" vertex="1">
          <mxGeometry x="511" y="261" width="56" height="26" as="geometry" />
        </mxCell>
        <mxCell id="-Q4Kfv5MP3wiHTD52DeR-38" value="" style="aspect=fixed;sketch=0;html=1;dashed=0;whitespace=wrap;verticalLabelPosition=bottom;verticalAlign=top;fillColor=#2875E2;strokeColor=#ffffff;points=[[0.005,0.63,0],[0.1,0.2,0],[0.9,0.2,0],[0.5,0,0],[0.995,0.63,0],[0.72,0.99,0],[0.5,1,0],[0.28,0.99,0]];shape=mxgraph.kubernetes.icon2;kubernetesLabel=1;prIcon=pod" parent="1" vertex="1">
          <mxGeometry x="526" y="305" width="50" height="48" as="geometry" />
        </mxCell>
        <mxCell id="-Q4Kfv5MP3wiHTD52DeR-39" value="" style="aspect=fixed;sketch=0;html=1;dashed=0;whitespace=wrap;verticalLabelPosition=bottom;verticalAlign=top;fillColor=#2875E2;strokeColor=#ffffff;points=[[0.005,0.63,0],[0.1,0.2,0],[0.9,0.2,0],[0.5,0,0],[0.995,0.63,0],[0.72,0.99,0],[0.5,1,0],[0.28,0.99,0]];shape=mxgraph.kubernetes.icon2;prIcon=api" parent="1" vertex="1">
          <mxGeometry x="329" y="85" width="50" height="48" as="geometry" />
        </mxCell>
        <mxCell id="-Q4Kfv5MP3wiHTD52DeR-40" style="edgeStyle=orthogonalEdgeStyle;rounded=0;orthogonalLoop=1;jettySize=auto;html=1;entryX=0.5;entryY=0.002;entryDx=0;entryDy=0;entryPerimeter=0;flowAnimation=1;" parent="1" source="-Q4Kfv5MP3wiHTD52DeR-39" target="-Q4Kfv5MP3wiHTD52DeR-20" edge="1">
          <mxGeometry relative="1" as="geometry" />
        </mxCell>
        <mxCell id="-Q4Kfv5MP3wiHTD52DeR-47" style="edgeStyle=orthogonalEdgeStyle;rounded=0;orthogonalLoop=1;jettySize=auto;html=1;entryX=0.5;entryY=0;entryDx=0;entryDy=0;entryPerimeter=0;flowAnimation=1;" parent="1" source="-Q4Kfv5MP3wiHTD52DeR-41" target="-Q4Kfv5MP3wiHTD52DeR-39" edge="1">
          <mxGeometry relative="1" as="geometry">
            <mxPoint x="695.5280609130859" y="270.5472240447998" as="targetPoint" />
            <Array as="points">
              <mxPoint x="750" y="529" />
              <mxPoint x="750" y="65" />
              <mxPoint x="354" y="65" />
            </Array>
          </mxGeometry>
        </mxCell>
        <mxCell id="-Q4Kfv5MP3wiHTD52DeR-49" value="alerts Kubernetes if scaling actions is needed" style="edgeLabel;html=1;align=center;verticalAlign=middle;resizable=0;points=[];" parent="-Q4Kfv5MP3wiHTD52DeR-47" vertex="1" connectable="0">
          <mxGeometry x="0.0482" y="4" relative="1" as="geometry">
            <mxPoint x="-70" y="-136" as="offset" />
          </mxGeometry>
        </mxCell>
        <mxCell id="-Q4Kfv5MP3wiHTD52DeR-41" value="Prometheus Monitoring" style="image;aspect=fixed;html=1;points=[];align=center;fontSize=12;image=img/lib/azure2/management_governance/Monitor.svg;" parent="1" vertex="1">
          <mxGeometry x="322" y="497" width="64" height="64" as="geometry" />
        </mxCell>
        <mxCell id="-Q4Kfv5MP3wiHTD52DeR-43" style="edgeStyle=orthogonalEdgeStyle;rounded=0;orthogonalLoop=1;jettySize=auto;html=1;exitX=0.5;exitY=1;exitDx=0;exitDy=0;entryX=0.506;entryY=0.021;entryDx=0;entryDy=0;entryPerimeter=0;" parent="1" source="-Q4Kfv5MP3wiHTD52DeR-33" target="-Q4Kfv5MP3wiHTD52DeR-41" edge="1">
          <mxGeometry relative="1" as="geometry" />
        </mxCell>
        <mxCell id="-Q4Kfv5MP3wiHTD52DeR-44" style="edgeStyle=orthogonalEdgeStyle;rounded=0;orthogonalLoop=1;jettySize=auto;html=1;exitX=0.5;exitY=1;exitDx=0;exitDy=0;entryX=0.506;entryY=-0.01;entryDx=0;entryDy=0;entryPerimeter=0;" parent="1" source="-Q4Kfv5MP3wiHTD52DeR-30" target="-Q4Kfv5MP3wiHTD52DeR-41" edge="1">
          <mxGeometry relative="1" as="geometry" />
        </mxCell>
        <mxCell id="-Q4Kfv5MP3wiHTD52DeR-45" style="edgeStyle=orthogonalEdgeStyle;rounded=0;orthogonalLoop=1;jettySize=auto;html=1;exitX=0.5;exitY=1;exitDx=0;exitDy=0;entryX=0.49;entryY=0.006;entryDx=0;entryDy=0;entryPerimeter=0;" parent="1" source="-Q4Kfv5MP3wiHTD52DeR-36" target="-Q4Kfv5MP3wiHTD52DeR-41" edge="1">
          <mxGeometry relative="1" as="geometry">
            <Array as="points">
              <mxPoint x="551" y="431" />
              <mxPoint x="353" y="431" />
            </Array>
          </mxGeometry>
        </mxCell>
        <mxCell id="-Q4Kfv5MP3wiHTD52DeR-46" value="&lt;font style=&quot;font-size: 11px;&quot;&gt;container metrics&lt;/font&gt;" style="text;html=1;align=center;verticalAlign=middle;resizable=0;points=[];autosize=1;strokeColor=none;fillColor=none;fontSize=11;" parent="1" vertex="1">
          <mxGeometry x="253" y="433" width="102" height="25" as="geometry" />
        </mxCell>
      </root>
    </mxGraphModel>
  </diagram>
</mxfile>
